<?xml version="1.0" encoding="UTF-8" standalone="no"?>
<!-- Created with Inkscape (http://www.inkscape.org/) -->

<svg
   width="148.45105"
   height="38.764301"
   viewBox="0 0 148.45105 38.764301"
   version="1.1"
   id="svg1"
   xml:space="preserve"
   inkscape:export-filename="bone.svg"
   inkscape:export-xdpi="96"
   inkscape:export-ydpi="96"
   inkscape:version="1.4.3 (0d15f75, 2025-12-25)"
   sodipodi:docname="bone.svg"
   xmlns:inkscape="http://www.inkscape.org/namespaces/inkscape"
   xmlns:sodipodi="http://sodipodi.sourceforge.net/DTD/sodipodi-0.dtd"
   xmlns="http://www.w3.org/2000/svg"
   xmlns:svg="http://www.w3.org/2000/svg"><sodipodi:namedview
     id="namedview1"
     pagecolor="#505050"
     bordercolor="#ffffff"
     borderopacity="1"
     inkscape:showpageshadow="0"
     inkscape:pageopacity="0"
     inkscape:pagecheckerboard="1"
     inkscape:deskcolor="#505050"
     inkscape:document-units="px"
     inkscape:zoom="1"
     inkscape:cx="-118"
     inkscape:cy="139.5"
     inkscape:window-width="2560"
     inkscape:window-height="1382"
     inkscape:window-x="0"
     inkscape:window-y="30"
     inkscape:window-maximized="1"
     inkscape:current-layer="layer1" /><defs
     id="defs1" /><g
     inkscape:label="Layer 1"
     inkscape:groupmode="layer"
     id="layer1"
     transform="translate(-723.91565,-164.48837)"><path
       style="fill:#ffffff"
       d="m 865.11926,202.9076 c -1.44024,0.63558 -2.82366,0.38872 -3.94348,-0.70369 -0.94872,-0.9255 -2.58105,-1.59245 -3.62741,-1.48211 -1.35265,0.14264 -3.13906,-1.07938 -6.1815,-4.22857 -4.7899,-4.95793 -6.51339,-5.70426 -8.49111,-3.67691 -1.08347,1.11065 -1.85797,0.89908 -3.86072,-1.05465 -2.31106,-2.2545 -2.66913,-2.27612 -4.6175,-0.27887 -1.67365,1.71564 -2.66214,1.91132 -4.76124,0.94251 -4.51295,-2.08288 -5.91391,-2.15642 -8.06202,-0.42321 -1.72217,1.38953 -2.43762,1.32293 -4.19398,-0.39045 -1.55177,-1.51379 -2.71473,-1.78869 -4.3523,-1.0288 -1.22908,0.57034 -4.16103,0.69627 -6.51544,0.27985 -2.35441,-0.41643 -4.5059,-0.53074 -4.7811,-0.25402 -0.9816,0.98704 -7.99329,0.29171 -9.23065,-0.91537 -0.693,-0.67603 -1.72327,-0.75425 -2.2895,-0.17381 -0.56623,0.58044 -2.48334,0.61235 -4.26024,0.0709 -1.89031,-0.57597 -3.78782,-0.41334 -4.57342,0.39197 -1.48853,1.52586 -7.83041,2.17644 -9.1041,0.93392 -0.44697,-0.43603 -1.15156,-0.44542 -1.56573,-0.0208 -0.41418,0.42457 -3.28595,0.79067 -6.3817,0.81355 -3.09575,0.0229 -5.93074,0.35128 -6.29995,0.72976 -0.36922,0.37848 -1.13938,0.23155 -1.71145,-0.32652 -0.57207,-0.55808 -2.74075,-0.38479 -4.81927,0.38506 -2.07853,0.76987 -4.51462,0.98134 -5.41354,0.46995 -1.98709,-1.13043 -2.76416,-0.47637 -2.49268,2.09811 0.1174,1.11325 -0.94831,3.1202 -2.50324,4.71414 -2.25609,2.31269 -2.95019,2.53903 -4.16176,1.35711 -0.79976,-0.78018 -2.11085,-1.11621 -2.91356,-0.74673 -3.28454,1.51185 -12.17144,-10.95409 -9.651,-13.53776 0.50112,-0.51369 2.06562,-0.7157 3.47666,-0.44889 4.15007,0.78469 4.60505,-2.21288 0.88647,-5.84045 -1.70525,-1.66352 -3.10992,-3.78819 -3.12148,-4.7215 -0.0116,-0.93331 1.73868,-3.50077 3.88942,-5.70547 4.36332,-4.47279 6.38819,-4.94427 9.24892,-2.15357 1.06953,1.04336 2.45967,1.63147 3.0892,1.30691 0.72393,-0.37325 3.26345,1.27786 6.90991,4.49257 l 5.76533,5.0827 2.29299,-2.35052 c 2.42154,-2.48229 4.05561,-2.32699 7.13622,0.67823 1.50106,1.46432 2.05562,1.35583 4.17501,-0.81673 2.38583,-2.44569 2.51217,-2.43886 5.30727,0.28783 2.64368,2.57898 3.01135,2.64303 4.79452,0.83538 2.68226,-2.71906 4.22757,-2.88233 6.99012,-0.73848 1.71394,1.33008 2.8594,1.4821 4.08114,0.54159 1.08677,-0.83661 3.16362,-0.77369 5.76685,0.17474 3.51644,1.28111 4.37376,1.16919 6.31909,-0.82494 1.94213,-1.99086 2.60254,-2.07884 4.8171,-0.64177 1.41153,0.91597 2.97787,1.24361 3.48075,0.72811 0.50289,-0.5155 2.43755,-0.56542 4.29925,-0.11092 2.29195,0.55953 3.93585,0.2616 5.09117,-0.92271 1.43031,-1.46619 2.05355,-1.41026 3.85369,0.34582 2.02813,1.9785 2.30261,1.93581 4.94061,-0.76837 2.69843,-2.76613 2.87386,-2.78453 5.17226,-0.54238 2.1541,2.10137 2.68948,2.12817 5.6608,0.28345 2.98801,-1.85508 3.54134,-1.82295 6.18273,0.35901 2.4437,2.01867 3.15472,2.13637 4.51043,0.74665 0.88517,-0.90738 1.76414,-3.09726 1.95325,-4.86638 0.18912,-1.76913 0.93147,-3.81897 1.64968,-4.5552 0.7182,-0.73622 2.48816,-1.26173 3.93325,-1.16779 1.44508,0.0939 3.06072,-0.27339 3.59032,-0.81628 1.02788,-1.05366 5.311,1.53353 9.88913,5.97348 2.15806,2.09267 2.43183,2.87741 1.38057,3.95503 -0.72127,0.73937 -1.09632,2.5738 -0.83344,4.07651 l 0.47796,2.73218 -2.74318,-0.41013 c -4.73553,-0.708 -4.82595,1.00793 -0.33899,6.43228 3.21797,3.89023 4.07001,5.624 3.74405,7.61854 -0.46607,2.85173 -3.53693,6.29654 -6.95944,7.80692 z"
       id="path33" /></g></svg>
