<?xml version="1.0" encoding="UTF-8" standalone="no"?>
<!-- Created with Inkscape (http://www.inkscape.org/) -->

<svg
   width="148.45105"
   height="38.764301"
   viewBox="0 0 148.45105 38.764301"
   version="1.1"
   id="svg1"
   xml:space="preserve"
   inkscape:export-filename="bone.svg"
   inkscape:export-xdpi="96"
   inkscape:export-ydpi="96"
   inkscape:version="1.4.3 (0d15f75, 2025-12-25)"
   sodipodi:docname="bone.svg"
   xmlns:inkscape="http://www.inkscape.org/namespaces/inkscape"
   xmlns:sodipodi="http://sodipodi.sourceforge.net/DTD/sodipodi-0.dtd"
   xmlns="http://www.w3.org/2000/svg"
   xmlns:svg="http://www.w3.org/2000/svg"><sodipodi:namedview
     id="namedview1"
     pagecolor="#505050"
     bordercolor="#ffffff"
     borderopacity="1"
     inkscape:showpageshadow="0"
     inkscape:pageopacity="0"
     inkscape:pagecheckerboard="1"
     inkscape:deskcolor="#505050"
     inkscape:document-units="px"
     inkscape:zoom="4"
     inkscape:cx="69.25"
     inkscape:cy="34.625"
     inkscape:window-width="1800"
     inkscape:window-height="1102"
     inkscape:window-x="0"
     inkscape:window-y="39"
     inkscape:window-maximized="1"
     inkscape:current-layer="layer1" /><defs
     id="defs1" /><g
     inkscape:label="Layer 1"
     inkscape:groupmode="layer"
     id="layer1"
     transform="translate(-723.91565,-164.48837)"><path
       id="rect1"
       style="fill:#ffffff;stroke-width:23.0385"
       d="M 846.41565 165.23837 L 846.41565 169.73837 L 842.66565 169.73837 L 842.66565 174.48837 L 786.66565 174.48837 L 786.66565 176.48837 L 754.66565 176.48837 L 754.66565 172.23837 L 751.91565 172.23837 L 751.91565 167.23837 L 731.66565 167.23837 L 731.66565 171.23837 L 727.16565 171.23837 L 727.16565 178.86532 L 731.66565 178.86532 L 731.66565 180.98837 L 742.41565 180.98837 L 742.41565 183.23837 L 737.41565 183.23837 L 737.41565 186.11532 L 729.91565 186.11532 L 729.91565 187.98837 L 725.41565 187.98837 L 725.41565 195.61532 L 729.91565 195.61532 L 729.91565 200.11532 L 732.91565 200.11532 L 732.91565 201.86532 L 746.91565 201.86532 L 746.91565 200.11532 L 750.16565 200.11532 L 750.16565 195.61532 L 753.91565 195.61532 L 753.91565 191.90439 L 812.16565 191.90439 L 812.16565 189.90439 L 841.91565 189.90439 L 841.91565 193.11532 L 844.66565 193.11532 L 844.66565 198.11532 L 855.91565 198.11532 L 855.91565 201.11532 L 868.16565 201.11532 L 868.16565 194.11532 L 869.41565 194.11532 L 869.41565 186.48837 L 864.91565 186.48837 L 864.91565 184.36532 L 863.91565 184.36532 L 863.91565 179.23837 L 866.66565 179.23837 L 866.66565 177.36532 L 871.16565 177.36532 L 871.16565 169.73837 L 866.66565 169.73837 L 866.66565 165.23837 L 846.41565 165.23837 z " /></g></svg>
