<?xml version="1.0" encoding="UTF-8" standalone="no"?>
<!-- Created with Inkscape (http://www.inkscape.org/) -->

<svg
   width="600"
   height="160"
   viewBox="0 0 600 160"
   version="1.1"
   id="svg1"
   xml:space="preserve"
   inkscape:version="1.4.3 (0d15f75, 2025-12-25)"
   sodipodi:docname="email-header-600x160.svg"
   inkscape:export-filename="email-header-600x160.png"
   inkscape:export-xdpi="96"
   inkscape:export-ydpi="96"
   xmlns:inkscape="http://www.inkscape.org/namespaces/inkscape"
   xmlns:sodipodi="http://sodipodi.sourceforge.net/DTD/sodipodi-0.dtd"
   xmlns="http://www.w3.org/2000/svg"
   xmlns:svg="http://www.w3.org/2000/svg"><sodipodi:namedview
     id="namedview1"
     pagecolor="#505050"
     bordercolor="#ffffff"
     borderopacity="1"
     inkscape:showpageshadow="0"
     inkscape:pageopacity="0"
     inkscape:pagecheckerboard="1"
     inkscape:deskcolor="#505050"
     inkscape:document-units="px"
     inkscape:zoom="1"
     inkscape:cx="300"
     inkscape:cy="33.5"
     inkscape:window-width="2560"
     inkscape:window-height="1382"
     inkscape:window-x="0"
     inkscape:window-y="31"
     inkscape:window-maximized="0"
     inkscape:current-layer="layer1" /><defs
     id="defs1"><mask
       maskUnits="userSpaceOnUse"
       id="mask86"><circle
         style="fill:#ffffff;fill-opacity:0.976471;stroke-width:3.21674"
         id="circle86"
         cx="256"
         cy="256"
         r="256" /></mask></defs><g
     inkscape:label="Layer 1"
     inkscape:groupmode="layer"
     id="layer1"><circle
       style="fill:#000000;stroke-width:15.3505"
       id="path86"
       cx="77"
       cy="80"
       r="65" /><path
       style="fill:#ffffff;stroke-width:0.235464"
       d="m 69.020511,118.74091 v -3.74939 l -0.264378,8.8e-4 c -0.145411,4.7e-4 -0.490883,0.028 -0.767718,0.0613 l -0.503336,0.0605 -0.02542,2.89496 -0.02542,2.89495 H 66.28058 65.126921 l -0.02512,-3.86956 -0.02512,-3.86957 h -0.816085 -0.816084 v 2.59574 2.59573 h -1.105588 -1.10559 v -2.59584 -2.59573 h 0.721036 0.721036 v -3.07642 -3.07643 h -0.432627 -0.432622 v -0.6249 -0.62489 h 0.721037 0.721037 v 0.6205 0.62051 l 0.648933,0.0284 0.648932,0.0284 0.02765,0.88929 0.02764,0.88927 h 0.669359 0.669359 v -2.11504 -2.11505 H 65.27553 64.606954 l -0.02843,-0.64892 -0.02843,-0.64894 -0.648932,-0.0284 -0.648933,-0.0284 v -0.71662 -0.71665 h -0.721042 -0.721036 v -0.52875 -0.52877 h -2.307316 -2.307316 v 0.42842 0.4284 l 0.697,0.0282 0.697003,0.0282 0.02825,0.697 0.02825,0.697 h -0.629109 -0.629112 v -0.29262 -0.29263 l -0.696999,0.0282 -0.697003,0.0282 -0.02808,0.74507 -0.02808,0.74507 h -1.630304 -1.630306 v -0.81717 -0.81719 h -0.384551 c -0.320461,0 -0.384553,-0.032 -0.384553,-0.19227 0,-0.17256 -0.06409,-0.19227 -0.624899,-0.19227 h -0.624899 l -9.64e-4,-0.36052 c -4.71e-4,-0.19828 -0.02787,-0.52275 -0.06065,-0.72104 l -0.05959,-0.36051 h -0.754201 -0.754201 l -0.02636,-1.610323 -0.02636,-1.610309 -0.79314,-0.02795 -0.793143,-0.02789 v -2.207292 -2.207292 h 0.814907 0.814903 l 0.02631,-1.658385 0.02631,-1.658379 0.843148,-0.02783 0.843147,-0.02784 -0.02597,-1.991093 -0.02598,-1.991098 -0.745071,-0.02808 -0.745071,-0.02808 v -1.630308 -1.630304 h 0.769106 0.769106 v -2.306992 -2.307318 h 0.865244 0.865243 v -4.23008 -4.230079 h -0.865243 -0.865244 v -1.826775 -1.826624 h -0.817188 -0.817173 v 2.591986 2.591989 l 0.841207,0.02778 0.841209,0.02778 0.02558,2.619766 0.02558,2.619764 h -0.866785 -0.866788 v 2.547663 2.547663 H 48.25698 47.393954 l -0.02625,-1.706453 c -0.02229,-1.449749 -0.04771,-1.701711 -0.168917,-1.67492 -0.07847,0.01733 -0.435381,0.0021 -0.793139,-0.03379 l -0.65047,-0.06533 v -9.892476 -9.892475 h 0.815335 0.815334 l 0.02587,-2.139076 c 0.01966,-1.625474 0.05472,-2.141959 0.146046,-2.151092 0.0661,-0.0066 0.422009,-0.01742 0.790921,-0.02403 l 0.670749,-0.012 0.02625,-1.706453 0.02625,-1.70645 0.79314,-0.02792 0.793138,-0.02792 V 49.229179 48.46396 h 0.769105 0.769106 V 47.694856 46.92575 h 0.61288 c 0.337086,0 0.749863,-0.0274 0.917282,-0.06088 0.298687,-0.05973 0.303222,-0.06873 0.241614,-0.479582 -0.05026,-0.33521 -0.03189,-0.430561 0.09217,-0.478167 0.12178,-0.04673 0.154957,-0.201347 0.154957,-0.722143 V 44.52229 h 0.865243 0.865243 v -0.865243 -0.865244 h 1.54449 1.544487 l -0.02192,-0.745071 -0.02193,-0.74507 1.433695,-0.04807 1.433691,-0.04807 v -0.865243 -0.865244 l 2.715904,-0.02553 2.715904,-0.02553 v -0.959948 -0.959885 h 9.709835 9.709956 v 0.961382 0.961381 h 2.739938 2.739939 v 0.910872 0.910872 l 1.514176,0.02648 1.514177,0.02648 0.02808,0.745071 0.02808,0.745071 h 1.438027 1.438023 v 0.865245 0.865243 h 0.76911 0.769109 v 0.672965 0.67297 h 0.336478 0.33649 v 0.528759 0.528761 h 0.72103 0.72104 l 0.0181,0.480692 c 0.01,0.264378 0.0208,0.599662 0.0241,0.74507 0.006,0.259968 0.0181,0.265181 0.72705,0.312448 l 0.72103,0.04807 0.028,0.74507 0.028,0.745073 h 0.75415 0.75413 l 0.0607,0.408587 c 0.0334,0.224722 0.0531,1.013746 0.0438,1.753386 l -0.0168,1.344798 0.80827,0.0011 0.80827,0.0011 0.0258,2.139075 0.0259,2.139074 h 0.81533 0.81534 v 9.898345 9.898346 l -0.79315,0.02792 -0.79314,0.02792 -0.0263,1.706454 -0.0263,1.706452 h -0.86303 -0.86303 v -2.547617 -2.547664 h -0.86678 -0.86679 l 0.0256,-2.619764 0.0256,-2.619765 0.84277,-0.0278 0.84278,-0.02781 -0.0256,-2.567931 -0.0256,-2.567931 -0.79314,-0.02792 -0.79314,-0.02792 v 1.830514 1.830514 h -0.86525 -0.86524 v 4.226336 4.226338 l 0.84121,0.02778 0.84121,0.02778 0.0258,2.283282 0.0258,2.283282 h 0.76736 0.76736 v 1.630304 1.630307 l -0.74506,0.02808 -0.74508,0.02808 -0.0259,1.994868 -0.0259,1.994872 h 0.80843 0.80843 l 0.0655,0.349197 c 0.036,0.192059 0.0548,0.938329 0.0417,1.658384 l -0.0238,1.309183 0.83421,0.02778 0.83424,0.02778 v 2.203554 2.203547 l -0.79315,0.02789 -0.79313,0.02795 -0.0264,1.610305 -0.0264,1.610331 h -0.76257 -0.76256 l -0.0282,0.697 -0.0282,0.697 -0.64893,0.0284 c -0.57009,0.025 -0.64893,0.0513 -0.64893,0.21631 0,0.15511 -0.0671,0.18788 -0.38456,0.18788 h -0.38455 v 0.81717 0.81717 h -1.630353 -1.630306 l -0.02804,-0.74506 -0.02804,-0.74507 h -0.671141 c -0.651318,0 -0.671206,0.007 -0.67297,0.24034 -0.0017,0.23153 -0.02473,0.24035 -0.626714,0.24035 h -0.624898 v -0.67297 -0.67296 l 0.648933,-0.0284 0.648932,-0.0284 v -0.42823 -0.42823 h -2.25445 -2.254449 l -0.02883,0.55279 -0.02883,0.55279 -0.745071,0.028 -0.745071,0.028 v 0.66892 0.66893 h -0.625009 -0.624896 v 0.67297 0.67296 h -0.672968 -0.672966 v 2.11504 2.11504 h 0.672966 0.672969 v -0.9133 -0.91331 h 0.624896 0.6249 v -0.62492 -0.62489 h 0.769105 0.769106 v 0.62489 0.62491 H 91.757162 91.32454 v 3.07643 3.07641 h 0.721036 0.721036 v 2.59573 2.59573 h -1.105591 -1.105588 v -2.59573 -2.59573 H 89.73935 88.923265 l -0.02512,3.86932 -0.02512,3.86931 -1.153658,2.3e-4 -1.153657,2.3e-4 -0.04807,-2.93221 -0.04806,-2.93221 -0.769107,0.0137 -0.769105,0.0137 -0.01938,3.68768 -0.01937,3.68767 -1.253326,0.0268 -1.253322,0.0268 -0.02517,-3.7235 -0.02516,-3.7235 -0.240348,0.006 c -0.132188,0.003 -0.46747,0.0119 -0.745069,0.0194 l -0.504726,0.0137 v 3.70132 3.70132 H 79.30727 77.769061 v -3.70132 -3.70132 l -0.216311,-0.0187 c -0.118973,-0.0102 -0.464918,-0.0211 -0.768772,-0.024 l -0.552461,-0.005 -2.35e-4,3.72536 -2.35e-4,3.72535 h -1.538179 -1.538211 v -3.70434 c 0,-3.22505 -0.01891,-3.71159 -0.14607,-3.76039 -0.08034,-0.0308 -0.426436,-0.026 -0.769106,0.0107 l -0.623034,0.0667 v 3.69367 3.69367 H 70.31858 69.020714 Z m 5.672154,-12.01322 v -0.66893 l 0.74507,-0.028 0.745072,-0.028 0.02674,-1.3219 0.02675,-1.3219 h 0.766391 0.766394 v 1.34593 1.34594 h 0.769106 0.769104 v 0.67296 0.67297 h 0.769106 0.769105 v -0.52876 -0.52876 h 0.57683 0.576829 v -0.6249 -0.6249 h 0.480691 0.480689 v -1.534 -1.534 l -0.697,-0.0282 -0.697002,-0.0282 -0.02586,-2.254696 c -0.019,-1.656632 -0.05725,-2.274642 -0.144207,-2.32988 -0.06509,-0.04134 -0.432005,-0.07584 -0.815357,-0.07666 l -0.697002,-0.0011 V 95.812312 94.32217 h -0.683878 -0.683875 l 0.03495,-0.841206 0.03495,-0.841211 -0.456655,-0.02929 c -0.434784,-0.02789 -0.456659,-0.04286 -0.456659,-0.312453 v -0.28314 h -0.721033 -0.721035 v 0.282887 c 0,0.26408 -0.02716,0.284851 -0.408586,0.312447 l -0.408588,0.02958 v 0.817174 0.817173 l -0.67297,0.04804 -0.672966,0.04804 -0.03011,1.440128 c -0.01655,0.792076 -0.03819,1.447698 -0.04807,1.456945 -0.0099,0.0093 -0.342429,0.0315 -0.738999,0.04949 l -0.72104,0.03267 -0.04806,2.307868 -0.04807,2.307858 -0.688332,0.028 -0.688333,0.028 -0.06415,0.88525 c -0.03528,0.48688 -0.05,1.16645 -0.0327,1.51014 l 0.03145,0.6249 0.504725,0.0291 0.504726,0.0291 v 0.61987 0.61987 h 0.576828 0.576829 v 0.52876 0.52876 h 0.769105 0.769106 z M 69.020511,96.528775 v -0.773319 l -0.697,0.02824 -0.697003,0.02824 -0.02808,0.745072 -0.02808,0.745072 h 0.725078 0.725082 z m 17.381021,0.02824 -0.02808,-0.745071 -0.697002,-0.02824 -0.697,-0.02824 v 0.773319 0.773319 h 0.725079 0.725082 z M 64.694294,94.994773 v -0.672969 h 1.430054 1.430056 l 0.06009,-0.300433 c 0.03305,-0.165238 0.06009,-0.489704 0.06009,-0.721034 v -0.420606 h 1.245211 1.245209 l 0.02862,-0.60086 0.02862,-0.600868 0.600865,-0.02859 0.600863,-0.02859 v -0.620306 -0.620311 h 0.624899 0.624896 v -1.535197 c 0,-1.332402 0.01926,-1.527804 0.145765,-1.479259 0.08017,0.03077 0.383007,0.02629 0.672968,-0.0099 l 0.527203,-0.06587 v -0.954463 -0.954465 h 0.817176 0.817173 v -1.345935 -1.345933 h -0.624899 -0.624897 v 0.57683 0.576829 H 72.289215 70.174173 V 83.025666 82.208492 H 68.635966 67.097754 V 81.310029 80.41162 L 65.78469,80.348641 C 65.062503,80.31401 62.966106,80.28567 61.126031,80.28567 H 57.78044 l -0.02808,0.745069 -0.02808,0.745072 -1.610313,0.02636 -1.610315,0.02636 v 0.718713 0.718712 H 53.59034 52.677027 v 1.05363 1.053633 l 0.789287,0.02792 0.789285,0.02792 -0.02878,3.100455 -0.02878,3.100461 h 0.681567 0.681565 v 0.817173 0.817173 h 0.667943 0.667942 l 0.02906,0.504727 0.02906,0.504727 0.528761,0.01735 c 0.29082,0.0096 0.669361,0.02038 0.84121,0.02405 l 0.312448,0.0067 v 0.672969 0.672969 h 3.028352 3.028357 z m 30.744577,-0.02405 0.02843,-0.648931 h 0.75969 0.759691 l 0.02906,-0.504727 0.02906,-0.504726 h 0.69717 0.697158 l 0.01446,-0.672964 c 0.0079,-0.370131 0.01866,-0.737863 0.02383,-0.81718 0.007,-0.10997 0.163452,-0.150953 0.65833,-0.172626 l 0.648922,-0.02842 v -3.120099 -3.120101 h 0.707938 0.70793 l 0.049,-0.937116 c 0.027,-0.515414 0.0282,-0.991297 0.003,-1.057519 -0.0322,-0.08379 -0.30277,-0.120403 -0.88994,-0.120403 -0.9632,0 -0.958547,0.0046 -0.961001,-0.934967 l -8.76e-4,-0.502344 -1.562246,-0.02641 -1.562241,-0.02642 -0.02802,-0.685783 c -0.02783,-0.681233 -0.02999,-0.686173 -0.324466,-0.74507 -0.386162,-0.07723 -3.322074,-0.07525 -6.49736,0.0044 l -2.523626,0.0633 v 0.897886 0.897884 h -1.538212 -1.53821 v 0.817173 0.817177 h -2.115278 -2.115039 v -0.57683 -0.576829 h -0.624897 -0.624899 v 1.345933 1.345934 h 0.817174 0.817175 v 0.961383 0.961382 h 0.672967 0.672968 l 0.01436,0.456658 c 0.0079,0.251159 0.02202,0.932539 0.03138,1.514173 l 0.017,1.057524 0.593519,0.02864 0.59352,0.02859 v 0.615723 0.615722 l 0.600863,0.02865 0.600865,0.02859 0.02855,0.598101 0.02855,0.598107 1.269315,0.02679 1.269316,0.02679 0.02825,0.697008 0.02825,0.696995 h 1.437862 1.437859 v 0.608879 c 0,0.334884 0.02945,0.638322 0.06544,0.674314 0.03599,0.03599 1.409565,0.05404 3.052389,0.04006 l 2.986949,-0.02539 z"
       id="path1-0" /></g></svg>
