<?xml version="1.0" encoding="UTF-8" standalone="no"?>
<!-- Created with Inkscape (http://www.inkscape.org/) -->

<svg
   width="512"
   height="512"
   viewBox="0 0 512 512"
   version="1.1"
   id="svg1"
   xml:space="preserve"
   inkscape:version="1.4.3 (0d15f75, 2025-12-25)"
   sodipodi:docname="icon-corenominal-512x512.svg"
   xmlns:inkscape="http://www.inkscape.org/namespaces/inkscape"
   xmlns:sodipodi="http://sodipodi.sourceforge.net/DTD/sodipodi-0.dtd"
   xmlns="http://www.w3.org/2000/svg"
   xmlns:svg="http://www.w3.org/2000/svg"><sodipodi:namedview
     id="namedview1"
     pagecolor="#505050"
     bordercolor="#ffffff"
     borderopacity="1"
     inkscape:showpageshadow="0"
     inkscape:pageopacity="0"
     inkscape:pagecheckerboard="1"
     inkscape:deskcolor="#505050"
     inkscape:document-units="px"
     inkscape:zoom="1"
     inkscape:cx="245"
     inkscape:cy="355.5"
     inkscape:window-width="2560"
     inkscape:window-height="1382"
     inkscape:window-x="0"
     inkscape:window-y="30"
     inkscape:window-maximized="1"
     inkscape:current-layer="layer1" /><defs
     id="defs1"><mask
       maskUnits="userSpaceOnUse"
       id="mask86"><circle
         style="fill:#ffffff;fill-opacity:0.976471;stroke-width:3.21674"
         id="circle86"
         cx="256"
         cy="256"
         r="256" /></mask></defs><g
     inkscape:label="Layer 1"
     inkscape:groupmode="layer"
     id="layer1"><circle
       style="fill:#000000;stroke-width:37.786"
       id="path3"
       cx="256"
       cy="256"
       r="256" /><path
       style="fill:#ffffff;stroke-width:0.997334"
       d="m 222.20164,420.09071 v -15.88096 l -1.11981,0.004 c -0.6159,0.002 -2.07918,0.1186 -3.25172,0.25964 l -2.13196,0.25626 -0.10758,12.26192 -0.10759,12.26188 h -4.88645 -4.88645 l -0.10632,-16.38995 -0.10631,-16.38999 h -3.4566 -3.45664 v 10.99455 10.9945 h -4.68285 -4.68285 v -10.99497 -10.9945 h 3.05404 3.05404 V 383.4423 370.41174 h -1.83245 -1.83241 v -2.64683 -2.64679 h 3.054 3.05405 v 2.6282 2.62823 l 2.74861,0.1203 2.74866,0.12029 0.1169,3.76668 0.11691,3.7666 h 2.8351 2.83515 v -8.95848 -8.95853 h -2.8318 -2.83185 l -0.12029,-2.74857 -0.12029,-2.74866 -2.74861,-0.12029 -2.74862,-0.12029 v -3.03532 -3.03545 h -3.05404 -3.05405 v -2.23958 -2.23967 h -9.77291 -9.77286 v 1.81462 1.81454 l 2.95222,0.11944 2.95223,0.11945 0.11986,2.95222 0.11986,2.95222 h -2.66466 -2.66467 v -1.23943 -1.23946 l -2.95222,0.11944 -2.95222,0.11944 -0.11902,3.15583 -0.11902,3.15583 h -6.90531 -6.90536 v -3.46122 -3.46129 h -1.62881 c -1.35734,0 -1.62884,-0.13554 -1.62884,-0.81439 0,-0.73089 -0.27151,-0.81438 -2.64679,-0.81438 h -2.64684 l -0.004,-1.52702 c -0.002,-0.83984 -0.11818,-2.21416 -0.25668,-3.05404 l -0.25244,-1.52698 h -3.1945 -3.1945 l -0.11182,-6.82069 -0.11182,-6.82065 -3.35943,-0.11817 -3.35943,-0.11817 v -9.34922 -9.34927 h 3.45164 3.4516 l 0.11139,-7.02425 0.1114,-7.02425 3.57125,-0.11775 3.57122,-0.11775 -0.11013,-8.43348 -0.11011,-8.43353 -3.15584,-0.11902 -3.15583,-0.11902 v -6.90536 -6.90531 h 3.25765 3.25761 v -9.77151 -9.77291 h 3.66487 3.66481 v -17.91697 -17.91697 h -3.66481 -3.66487 v -7.73753 -7.73685 h -3.46126 -3.46125 v 10.97866 10.97861 l 3.56304,0.11775 3.56303,0.11775 0.10844,11.09633 0.10843,11.09628 h -3.67156 -3.67138 v 10.79094 10.7909 h -3.65542 -3.65546 l -0.11139,-7.22786 c -0.0945,-6.14058 -0.20204,-7.20778 -0.71544,-7.09431 -0.3325,0.0733 -1.8441,0.008 -3.35943,-0.14316 l -2.75514,-0.27659 v -41.90069 -41.90065 h 3.45342 3.45346 l 0.10971,-9.06031 c 0.0834,-6.88486 0.23168,-9.07251 0.61856,-9.11118 0.27998,-0.0297 1.78747,-0.0737 3.35003,-0.10165 l 2.84105,-0.0508 0.1114,-7.22786 0.11138,-7.22786 3.35943,-0.11817 3.35944,-0.11817 v -3.24075 -3.24118 h 3.25765 3.2576 v -3.25761 -3.25764 h 2.59593 c 1.42778,0 3.17611,-0.11606 3.88525,-0.25795 1.26513,-0.25287 1.28436,-0.29098 1.0234,-2.03131 -0.21305,-1.41982 -0.13511,-1.82368 0.39053,-2.02534 0.51581,-0.1978 0.65631,-0.85284 0.65631,-3.0587 v -2.8069 h 3.66486 3.66482 v -3.66483 -3.664855 h 6.54185 6.54186 l -0.0928,-3.15583 -0.0928,-3.15582 6.07257,-0.20374 6.07255,-0.20373 v -3.66482 -3.66482 l 11.50353,-0.10801 11.5035,-0.10801 v -4.06597 -4.06572 h 41.1271 41.12756 v 4.07203 4.07207 h 11.60532 11.60532 v 3.8581 3.85809 l 6.41348,0.11224 6.41343,0.11224 0.11902,3.15583 0.11901,3.15583 h 6.09094 6.09089 v 3.664855 3.66483 h 3.25765 3.25766 v 2.85039 2.85044 h 1.4252 1.42524 v 2.23962 2.23963 h 3.05399 3.05405 l 0.0767,2.03605 c 0.0424,1.11977 0.0881,2.53993 0.10208,3.15583 0.0254,1.10109 0.0767,1.1232 3.0795,1.32337 l 3.05399,0.20374 0.1186,3.15582 0.11861,3.15586 h 3.19428 3.1942 l 0.2571,1.7306 c 0.14147,0.95187 0.22492,4.29384 0.18552,7.42667 l -0.0711,5.69604 3.42351,0.004 3.42352,0.004 0.10928,9.06027 0.1097,9.06031 h 3.45342 3.45346 v 41.92551 41.92556 l -3.35947,0.11817 -3.35943,0.11817 -0.1114,7.22786 -0.1114,7.22786 h -3.65545 -3.65546 V 249.67584 238.8849 h -3.67135 -3.67138 l 0.10843,-11.09628 0.10843,-11.09633 3.56965,-0.11775 3.56969,-0.11775 -0.10844,-10.87675 -0.10843,-10.87674 -3.35943,-0.11818 -3.35943,-0.11817 v 7.75337 7.75333 h -3.66486 -3.66482 v 17.90113 17.90109 l 3.56303,0.11775 3.56304,0.11775 0.10928,9.67112 0.10928,9.67109 h 3.25024 3.25024 v 6.90531 6.90535 l -3.15579,0.11902 -3.15587,0.11902 -0.1097,8.44949 -0.1097,8.4495 h 3.42419 3.4242 l 0.27743,1.47907 c 0.15248,0.81349 0.23211,3.97436 0.17663,7.02425 l -0.10081,5.54518 3.53339,0.11775 3.53351,0.11775 v 9.33342 9.33334 l -3.35947,0.11817 -3.35939,0.11861 -0.11182,6.82065 -0.11182,6.82073 h -3.22995 -3.22991 l -0.11944,2.95222 -0.11945,2.95222 -2.74861,0.12029 c -2.41468,0.10589 -2.74862,0.21728 -2.74862,0.9162 0,0.65699 -0.28421,0.79579 -1.62884,0.79579 h -1.62881 v 3.46121 3.46122 h -6.90552 -6.90536 l -0.1186,-3.15579 -0.1186,-3.15582 h -2.84268 c -2.75874,0 -2.84299,0.0296 -2.85044,1.01798 -0.008,0.98067 -0.10462,1.01803 -2.6545,1.01803 h -2.64684 v -2.85044 -2.85039 l 2.74862,-0.12029 2.74861,-0.1203 v -1.81381 -1.81382 h -9.54897 -9.54897 l -0.12199,2.34141 -0.12198,2.3414 -3.15583,0.1186 -3.15582,0.11859 v 2.83329 2.83333 h -2.6473 -2.64679 v 2.85043 2.8504 h -2.85044 -2.85044 v 8.95849 8.95848 h 2.85044 2.85044 v -3.86838 -3.86843 h 2.64679 2.64683 v -2.64691 -2.6468 h 3.25765 3.25761 v 2.6468 2.64687 h -1.83241 -1.83241 v 13.03056 13.03047 h 3.05404 3.05401 v 10.99451 10.9945 h -4.68285 -4.68285 v -10.9945 -10.99451 h -3.4566 -3.4566 l -0.10631,16.38894 -0.10631,16.38889 -4.88641,9.7e-4 -4.88646,9.7e-4 -0.20373,-12.41969 -0.20373,-12.4197 -3.25766,0.058 -3.2576,0.058 -0.0822,15.61957 -0.0822,15.61953 -5.30862,0.11352 -5.30858,0.11352 -0.10674,-15.7713 -0.10673,-15.7713 -1.01803,0.0254 c -0.55991,0.0127 -1.98002,0.0504 -3.15583,0.0822 l -2.1378,0.058 v 15.67735 15.67735 h -6.51534 -6.51526 v -15.67735 -15.67735 l -0.9162,-0.0792 c -0.50391,-0.0432 -1.96922,-0.0894 -3.25621,-0.10166 l -2.34001,-0.0212 -0.001,15.77918 -9.8e-4,15.77913 h -6.51513 -6.51526 v -15.69014 c 0,-13.66006 -0.0801,-15.72085 -0.61869,-15.92755 -0.34012,-0.13046 -1.80624,-0.11013 -3.25765,0.0453 l -2.63892,0.28252 v 15.64494 15.64495 h -5.49727 -5.49727 z m 24.02506,-50.88332 v -2.83333 l 3.15578,-0.11859 3.15587,-0.1186 0.11309,-5.59906 0.1135,-5.59905 h 3.24613 3.24613 v 5.70085 5.70087 h 3.25765 3.25761 v 2.85039 2.85044 h 3.25766 3.25761 v -2.23962 -2.23962 h 2.44323 2.44322 v -2.64684 -2.64683 h 2.03602 2.03602 v -6.49743 -6.49742 l -2.95222,-0.11944 -2.95223,-0.11944 -0.1097,-9.55003 c -0.0805,-7.01684 -0.2427,-9.63449 -0.61082,-9.86847 -0.27573,-0.17494 -1.82978,-0.32106 -3.4535,-0.32487 l -2.95226,-0.004 v -6.31271 -6.31166 h -2.89661 -2.89665 l 0.14782,-3.56304 0.14783,-3.56304 -1.93419,-0.1241 c -1.84161,-0.11818 -1.93424,-0.1817 -1.93424,-1.32342 v -1.19927 h -3.05404 -3.05401 v 1.19821 c 0,1.11854 -0.1152,1.20651 -1.73062,1.32338 l -1.73063,0.12538 v 3.46125 3.46122 l -2.85044,0.20331 -2.8504,0.20331 -0.12749,6.09983 c -0.0699,3.35489 -0.1618,6.13189 -0.20373,6.17102 -0.0424,0.0381 -1.4504,0.13342 -3.13012,0.20966 l -3.05404,0.13851 -0.20374,9.77523 -0.20373,9.7752 -2.9155,0.11859 -2.91554,0.1186 -0.27192,3.74958 c -0.14952,2.06223 -0.21178,4.94062 -0.13851,6.39636 l 0.13343,2.64683 2.13783,0.12327 2.13784,0.12326 v 2.62552 2.62553 h 2.44319 2.44323 v 2.23962 2.23962 h 3.25765 3.2576 z m -24.02506,-43.19865 v -3.27544 l -2.95222,0.11944 -2.95222,0.11945 -0.11904,3.15582 -0.11902,3.15583 h 3.07116 3.07116 z m 73.61923,0.11944 -0.11902,-3.15583 -2.95222,-0.11944 -2.95223,-0.11944 v 3.27549 3.27548 h 3.07116 3.07116 z m -91.94342,-6.61704 v -2.85044 h 6.05717 6.05715 l 0.25456,-1.27249 c 0.14018,-0.69989 0.25455,-2.07418 0.25455,-3.054 v -1.78154 h 5.27426 5.2742 l 0.12112,-2.54501 0.12114,-2.54505 2.54505,-0.12114 2.54501,-0.12115 v -2.62734 -2.62739 h 2.64684 2.64683 v -6.50251 c 0,-5.64353 0.0817,-6.47117 0.61738,-6.26557 0.3397,0.13046 1.62228,0.1114 2.85044,-0.0424 l 2.23301,-0.27912 v -4.04272 -4.04277 h 3.46126 3.46121 v -5.70083 -5.70088 h -2.64683 -2.64679 v 2.44323 2.44322 h -8.95849 -8.95852 v -3.46121 -3.46126 h -6.51522 -6.5153 v -3.80552 -3.80532 l -5.56161,-0.26684 c -3.05892,-0.14655 -11.93841,-0.26684 -19.73227,-0.26684 h -14.17062 l -0.11902,3.15582 -0.11902,3.15583 -6.82064,0.11182 -6.82069,0.11182 v 3.04417 3.04422 h -3.86843 -3.86842 v 4.46277 4.46277 l 3.34308,0.11817 3.34313,0.11817 -0.12199,13.1323 -0.12199,13.13234 h 2.88687 2.88682 v 3.46126 3.46121 h 2.82914 2.82917 l 0.12326,2.13784 0.12325,2.1378 2.23963,0.0733 c 1.2318,0.0424 2.83514,0.0864 3.56303,0.10166 l 1.32342,0.0297 v 2.85044 2.85044 h 12.82691 12.82691 z m 130.22207,-0.10165 0.12029,-2.74862 h 3.21775 3.21775 l 0.12326,-2.13784 0.12325,-2.1378 h 2.95294 2.9529 l 0.0614,-2.85043 c 0.0339,-1.56773 0.0792,-3.12529 0.10081,-3.46126 0.0297,-0.46579 0.69231,-0.63937 2.78843,-0.73115 l 2.74857,-0.12029 v -13.21553 -13.21553 h 2.99856 2.99851 l 0.20755,-3.96927 c 0.11436,-2.18308 0.11944,-4.19871 0.0127,-4.47924 -0.13638,-0.35494 -1.28241,-0.50996 -3.76944,-0.50996 -4.07974,0 -4.06004,0.0212 -4.07042,-3.96017 l -0.004,-2.12772 -6.61704,-0.11183 -6.61704,-0.11182 -0.1186,-2.9047 c -0.11775,-2.88546 -0.12707,-2.90639 -1.37433,-3.15582 -1.63562,-0.32699 -14.07099,-0.31852 -27.52029,0.0169 l -10.68911,0.26811 v 3.80307 3.80312 h -6.51526 -6.51526 v 3.46121 3.46126 h -8.9595 -8.95844 v -2.44323 -2.44323 h -2.64683 -2.64684 v 5.70085 5.70083 h 3.46122 3.46125 v 4.07207 4.07203 h 2.8504 2.85044 l 0.061,1.93423 c 0.0339,1.06382 0.0932,3.94988 0.133,6.41343 l 0.072,4.47929 2.51392,0.12114 2.51392,0.12115 v 2.60798 2.60796 l 2.54505,0.12155 2.54501,0.12115 0.12072,2.53332 0.12071,2.53336 5.37635,0.11351 5.3763,0.11352 0.11987,2.95226 0.11987,2.95218 h 6.09021 6.09022 v 2.57898 c 0,1.41842 0.12452,2.70367 0.277,2.85611 0.15249,0.15248 5.97039,0.22872 12.92874,0.16985 l 12.65156,-0.10758 z"
       id="path1-0" /></g></svg>
